<svg width="29" height="29" viewBox="0 0 29 29" fill="none" xmlns="http://www.w3.org/2000/svg">
<path fill-rule="evenodd" clip-rule="evenodd" d="M21.7547 12.9896V19.0312L23.3014 20.59C24.0626 21.3512 23.5189 22.6562 22.4434 22.6562H6.52969C5.45428 22.6562 4.92261 21.3512 5.68386 20.59L7.25469 19.0312V12.9896C7.25469 9.26792 9.22428 6.17458 12.6922 5.35292V4.53125C12.6922 3.52833 13.4897 2.71875 14.4926 2.71875C15.4955 2.71875 16.3172 3.52833 16.3172 4.53125V5.35292C19.773 6.17458 21.7547 9.28 21.7547 12.9896ZM16.9093 23.8646C16.9093 25.1938 15.8218 26.2812 14.4926 26.2812C13.1514 26.2812 12.0759 25.1938 12.0759 23.8646H16.9093ZM8.18511 5.41333C8.69261 4.95417 8.70469 4.16875 8.22136 3.68542C7.76219 3.22625 7.01303 3.21417 6.54178 3.66125C4.47553 5.54625 3.04969 8.10792 2.59053 10.9838C2.48178 11.7208 3.04969 12.3854 3.79886 12.3854C4.37886 12.3854 4.88636 11.9625 4.98303 11.3825C5.34553 9.03833 6.50553 6.94792 8.18511 5.41333ZM20.788 3.68542C21.2472 3.22625 21.9964 3.21417 22.4797 3.66125C24.5339 5.55833 25.9476 8.10792 26.4068 10.9717C26.5276 11.7087 25.9476 12.3733 25.2105 12.3733C24.6184 12.3733 24.1109 11.9504 24.0264 11.3704C23.6639 9.02625 22.4918 6.93583 20.8243 5.40125C20.3289 4.94208 20.3047 4.16875 20.788 3.68542Z" fill="#F9E784"/>
</svg>
