<svg width="36" height="36" viewBox="0 0 36 36" fill="none" xmlns="http://www.w3.org/2000/svg">
<path fill-rule="evenodd" clip-rule="evenodd" d="M27.0019 16.125V23.625L28.9369 25.56C29.8819 26.505 29.2069 28.125 27.8719 28.125H8.11691C6.78191 28.125 6.12191 26.505 7.06691 25.56L9.00191 23.625V16.125C9.00191 11.505 11.4469 7.665 15.7519 6.645V5.625C15.7519 4.38 16.7569 3.375 18.0019 3.375C19.2469 3.375 20.2519 4.38 20.2519 5.625V6.645C24.5419 7.665 27.0019 11.52 27.0019 16.125ZM21.0019 29.625C21.0019 31.275 19.6519 32.625 18.0019 32.625C16.3369 32.625 15.0019 31.275 15.0019 29.625H21.0019Z" fill="#EAEBED"/>
</svg>
