<svg width="178" height="44" viewBox="0 0 178 44" fill="none" xmlns="http://www.w3.org/2000/svg">
<path d="M7.956 35.36C6.828 35.36 5.91 35.132 5.202 34.676C4.494 34.208 3.972 33.614 3.636 32.894C3.3 32.174 3.132 31.424 3.132 30.644V20.672H0.576L0.972 17H3.132V13.04L7.596 12.572V17H11.556V20.672H7.596V28.808C7.596 29.72 7.65 30.38 7.758 30.788C7.866 31.184 8.112 31.436 8.496 31.544C8.88 31.64 9.492 31.688 10.332 31.688H11.556L11.16 35.36H7.956ZM14.463 35V17H18.639L18.747 18.908C19.203 18.404 19.845 17.9 20.673 17.396C21.501 16.892 22.407 16.64 23.391 16.64C23.679 16.64 23.943 16.664 24.183 16.712L23.859 21.104C23.595 21.032 23.331 20.984 23.067 20.96C22.815 20.936 22.563 20.924 22.311 20.924C21.555 20.924 20.865 21.098 20.241 21.446C19.617 21.794 19.179 22.22 18.927 22.724V35H14.463ZM34.7054 35.36C32.5334 35.36 30.7214 34.928 29.2694 34.064C27.8294 33.188 26.7494 32.036 26.0294 30.608C25.3094 29.168 24.9494 27.596 24.9494 25.892C24.9494 24.248 25.2854 22.73 25.9574 21.338C26.6414 19.946 27.6374 18.83 28.9454 17.99C30.2534 17.138 31.8494 16.712 33.7334 16.712C35.4614 16.712 36.9014 17.066 38.0534 17.774C39.2054 18.482 40.0694 19.43 40.6454 20.618C41.2214 21.794 41.5094 23.096 41.5094 24.524C41.5094 24.92 41.4854 25.322 41.4374 25.73C41.3894 26.126 41.3174 26.54 41.2214 26.972H29.5934C29.7614 28.088 30.1094 28.994 30.6374 29.69C31.1774 30.374 31.8314 30.878 32.5994 31.202C33.3794 31.526 34.2134 31.688 35.1014 31.688C36.1454 31.688 37.1174 31.556 38.0174 31.292C38.9174 31.016 39.7454 30.656 40.5014 30.212L40.7174 33.992C40.0334 34.352 39.1814 34.67 38.1614 34.946C37.1414 35.222 35.9894 35.36 34.7054 35.36ZM29.7014 23.948H36.9734C36.9734 23.408 36.8714 22.868 36.6674 22.328C36.4634 21.776 36.1214 21.314 35.6414 20.942C35.1734 20.57 34.5374 20.384 33.7334 20.384C32.5814 20.384 31.6754 20.72 31.0154 21.392C30.3554 22.064 29.9174 22.916 29.7014 23.948ZM44.5568 35V17H48.7328L48.9128 20.348L47.8688 18.98C48.5528 18.404 49.3688 17.882 50.3168 17.414C51.2648 16.946 52.3688 16.712 53.6288 16.712C55.9328 16.712 57.6428 17.48 58.7588 19.016C59.8748 20.54 60.4328 22.52 60.4328 24.956V35H55.9688V25.316C55.9688 23.636 55.6868 22.394 55.1228 21.59C54.5708 20.786 53.6648 20.384 52.4048 20.384C51.3848 20.384 50.5508 20.636 49.9028 21.14C49.2548 21.632 48.6848 22.292 48.1928 23.12L49.0208 20.924V35H44.5568ZM71.692 35.36C69.868 35.36 68.332 34.934 67.084 34.082C65.848 33.23 64.912 32.096 64.276 30.68C63.652 29.264 63.34 27.716 63.34 26.036C63.34 24.356 63.652 22.808 64.276 21.392C64.912 19.976 65.848 18.842 67.084 17.99C68.332 17.138 69.868 16.712 71.692 16.712C73.012 16.712 74.128 16.934 75.04 17.378C75.952 17.81 76.756 18.368 77.452 19.052L76.372 19.988V8H80.836V35H76.624L76.408 31.94L77.704 32.876C76.864 33.644 75.994 34.25 75.094 34.694C74.194 35.138 73.06 35.36 71.692 35.36ZM72.34 31.688C73.324 31.688 74.128 31.448 74.752 30.968C75.376 30.488 75.838 29.828 76.138 28.988C76.438 28.136 76.588 27.152 76.588 26.036C76.588 24.92 76.438 23.942 76.138 23.102C75.838 22.25 75.376 21.584 74.752 21.104C74.128 20.624 73.324 20.384 72.34 20.384C71.404 20.384 70.606 20.624 69.946 21.104C69.286 21.584 68.782 22.25 68.434 23.102C68.086 23.942 67.912 24.92 67.912 26.036C67.912 27.152 68.086 28.136 68.434 28.988C68.782 29.828 69.286 30.488 69.946 30.968C70.606 31.448 71.404 31.688 72.34 31.688ZM90.8544 35.36C89.7264 35.36 88.8084 35.132 88.1004 34.676C87.3924 34.208 86.8704 33.614 86.5344 32.894C86.1984 32.174 86.0304 31.424 86.0304 30.644V20.672H83.4744L83.8704 17H86.0304V13.04L90.4944 12.572V17H94.4544V20.672H90.4944V28.808C90.4944 29.72 90.5484 30.38 90.6564 30.788C90.7644 31.184 91.0104 31.436 91.3944 31.544C91.7784 31.64 92.3904 31.688 93.2304 31.688H94.4544L94.0584 35.36H90.8544ZM106.037 35.36C103.865 35.36 102.053 34.928 100.601 34.064C99.1614 33.188 98.0814 32.036 97.3614 30.608C96.6414 29.168 96.2814 27.596 96.2814 25.892C96.2814 24.248 96.6174 22.73 97.2894 21.338C97.9734 19.946 98.9694 18.83 100.277 17.99C101.585 17.138 103.181 16.712 105.065 16.712C106.793 16.712 108.233 17.066 109.385 17.774C110.537 18.482 111.401 19.43 111.977 20.618C112.553 21.794 112.841 23.096 112.841 24.524C112.841 24.92 112.817 25.322 112.769 25.73C112.721 26.126 112.649 26.54 112.553 26.972H100.925C101.093 28.088 101.441 28.994 101.969 29.69C102.509 30.374 103.163 30.878 103.931 31.202C104.711 31.526 105.545 31.688 106.433 31.688C107.477 31.688 108.449 31.556 109.349 31.292C110.249 31.016 111.077 30.656 111.833 30.212L112.049 33.992C111.365 34.352 110.513 34.67 109.493 34.946C108.473 35.222 107.321 35.36 106.037 35.36ZM101.033 23.948H108.305C108.305 23.408 108.203 22.868 107.999 22.328C107.795 21.776 107.453 21.314 106.973 20.942C106.505 20.57 105.869 20.384 105.065 20.384C103.913 20.384 103.007 20.72 102.347 21.392C101.687 22.064 101.249 22.916 101.033 23.948ZM120.497 35.36C119.429 35.36 118.553 35.15 117.869 34.73C117.197 34.298 116.699 33.728 116.375 33.02C116.051 32.3 115.889 31.508 115.889 30.644V8H120.353V28.808C120.353 29.768 120.407 30.452 120.515 30.86C120.635 31.256 120.851 31.496 121.163 31.58C121.475 31.652 121.925 31.688 122.513 31.688L122.117 35.36H120.497ZM129.954 35.36C128.886 35.36 128.01 35.15 127.326 34.73C126.654 34.298 126.156 33.728 125.832 33.02C125.508 32.3 125.346 31.508 125.346 30.644V8H129.81V28.808C129.81 29.768 129.864 30.452 129.972 30.86C130.092 31.256 130.308 31.496 130.62 31.58C130.932 31.652 131.382 31.688 131.97 31.688L131.574 35.36H129.954ZM143.303 35.36C141.131 35.36 139.319 34.928 137.867 34.064C136.427 33.188 135.347 32.036 134.627 30.608C133.907 29.168 133.547 27.596 133.547 25.892C133.547 24.248 133.883 22.73 134.555 21.338C135.239 19.946 136.235 18.83 137.543 17.99C138.851 17.138 140.447 16.712 142.331 16.712C144.059 16.712 145.499 17.066 146.651 17.774C147.803 18.482 148.667 19.43 149.243 20.618C149.819 21.794 150.107 23.096 150.107 24.524C150.107 24.92 150.083 25.322 150.035 25.73C149.987 26.126 149.915 26.54 149.819 26.972H138.191C138.359 28.088 138.707 28.994 139.235 29.69C139.775 30.374 140.429 30.878 141.197 31.202C141.977 31.526 142.811 31.688 143.699 31.688C144.743 31.688 145.715 31.556 146.615 31.292C147.515 31.016 148.343 30.656 149.099 30.212L149.315 33.992C148.631 34.352 147.779 34.67 146.759 34.946C145.739 35.222 144.587 35.36 143.303 35.36ZM138.299 23.948H145.571C145.571 23.408 145.469 22.868 145.265 22.328C145.061 21.776 144.719 21.314 144.239 20.942C143.771 20.57 143.135 20.384 142.331 20.384C141.179 20.384 140.273 20.72 139.613 21.392C138.953 22.064 138.515 22.916 138.299 23.948ZM153.154 35V17H157.33L157.438 18.908C157.894 18.404 158.536 17.9 159.364 17.396C160.192 16.892 161.098 16.64 162.082 16.64C162.37 16.64 162.634 16.664 162.874 16.712L162.55 21.104C162.286 21.032 162.022 20.984 161.758 20.96C161.506 20.936 161.254 20.924 161.002 20.924C160.246 20.924 159.556 21.098 158.932 21.446C158.308 21.794 157.87 22.22 157.618 22.724V35H153.154Z" fill="white"/>
<rect x="167" y="24.2273" width="11" height="11" fill="white"/>
</svg>
