<svg width="36" height="36" viewBox="0 0 36 36" fill="none" xmlns="http://www.w3.org/2000/svg">
<path fill-rule="evenodd" clip-rule="evenodd" d="M4.755 9.03187L16.605 2.79187C17.475 2.32687 18.525 2.32687 19.395 2.79187L31.245 9.03187C31.86 9.34687 32.25 9.99187 32.25 10.6819C32.25 11.7169 31.41 12.5569 30.39 12.5569H5.625C4.59 12.5569 3.75 11.7169 3.75 10.6819C3.75 9.99187 4.14 9.34687 4.755 9.03187ZM6.75 17.8069V23.8069C6.75 25.0519 7.755 26.0569 9 26.0569C10.245 26.0569 11.25 25.0519 11.25 23.8069V17.8069C11.25 16.5619 10.245 15.5569 9 15.5569C7.755 15.5569 6.75 16.5619 6.75 17.8069ZM15.75 17.8069V23.8069C15.75 25.0519 16.755 26.0569 18 26.0569C19.245 26.0569 20.25 25.0519 20.25 23.8069V17.8069C20.25 16.5619 19.245 15.5569 18 15.5569C16.755 15.5569 15.75 16.5619 15.75 17.8069ZM32.25 31.3069C32.25 32.5519 31.245 33.5569 30 33.5569H6C4.755 33.5569 3.75 32.5519 3.75 31.3069C3.75 30.0619 4.755 29.0569 6 29.0569H30C31.245 29.0569 32.25 30.0619 32.25 31.3069ZM24.75 17.8069V23.8069C24.75 25.0519 25.755 26.0569 27 26.0569C28.245 26.0569 29.25 25.0519 29.25 23.8069V17.8069C29.25 16.5619 28.245 15.5569 27 15.5569C25.755 15.5569 24.75 16.5619 24.75 17.8069Z" fill="#EAEBED"/>
</svg>
