<svg width="42" height="42" viewBox="0 0 42 42" fill="none" xmlns="http://www.w3.org/2000/svg">
<g clip-path="url(#clip0_28537_1160)">
<circle cx="21" cy="21" r="21" fill="white"/>
<path fill-rule="evenodd" clip-rule="evenodd" d="M25 17C25 19.21 23.21 21 21 21C18.79 21 17 19.21 17 17C17 14.79 18.79 13 21 13C23.21 13 25 14.79 25 17ZM13 27C13 24.34 18.33 23 21 23C23.67 23 29 24.34 29 27V28C29 28.55 28.55 29 28 29H14C13.45 29 13 28.55 13 28V27Z" fill="#40494F"/>
</g>
<defs>
<clipPath id="clip0_28537_1160">
<rect width="42" height="42" fill="white"/>
</clipPath>
</defs>
</svg>
