<svg width="42" height="42" viewBox="0 0 42 42" fill="none" xmlns="http://www.w3.org/2000/svg">
<path fill-rule="evenodd" clip-rule="evenodd" d="M3.5 21C3.5 11.34 11.3225 3.5 20.9825 3.5C30.66 3.5 38.5 11.34 38.5 21C38.5 30.66 30.66 38.5 20.9825 38.5C11.3225 38.5 3.5 30.66 3.5 21ZM14.875 14C13.4253 14 12.25 15.1753 12.25 16.625C12.25 18.0747 13.4253 19.25 14.875 19.25C16.3247 19.25 17.5 18.0747 17.5 16.625C17.5 15.1753 16.3247 14 14.875 14ZM27.125 14C25.6753 14 24.5 15.1753 24.5 16.625C24.5 18.0747 25.6753 19.25 27.125 19.25C28.5747 19.25 29.75 18.0747 29.75 16.625C29.75 15.1753 28.5747 14 27.125 14ZM21 35C13.265 35 7 28.735 7 21C7 13.265 13.265 7 21 7C28.735 7 35 13.265 35 21C35 28.735 28.735 35 21 35ZM12.8625 29.015C14.6475 26.1975 17.675 24.5 21 24.5C24.325 24.5 27.3525 26.18 29.155 29.015C29.54 29.6275 29.3475 30.4325 28.735 30.8175C28.5075 30.94 28.28 31.01 28.035 31.01C27.5975 31.01 27.16 30.8 26.915 30.3975C25.62 28.3325 23.415 27.1075 21 27.1075C18.585 27.1075 16.38 28.3325 15.085 30.3975C14.7 31.01 13.895 31.2025 13.2825 30.8175C12.67 30.4325 12.4775 29.6275 12.8625 29.015Z" fill="#B40000"/>
</svg>
