<svg width="42" height="42" viewBox="0 0 42 42" fill="none" xmlns="http://www.w3.org/2000/svg">
<path fill-rule="evenodd" clip-rule="evenodd" d="M20.9825 3.5C11.3225 3.5 3.5 11.34 3.5 21C3.5 30.66 11.3225 38.5 20.9825 38.5C30.66 38.5 38.5 30.66 38.5 21C38.5 11.34 30.66 3.5 20.9825 3.5ZM12.25 16.625C12.25 15.1753 13.4253 14 14.875 14C16.3247 14 17.5 15.1753 17.5 16.625C17.5 18.0747 16.3247 19.25 14.875 19.25C13.4253 19.25 12.25 18.0747 12.25 16.625ZM27.125 14C25.6753 14 24.5 15.1753 24.5 16.625C24.5 18.0747 25.6753 19.25 27.125 19.25C28.5747 19.25 29.75 18.0747 29.75 16.625C29.75 15.1753 28.5747 14 27.125 14ZM15.75 25.8125C15.75 26.53 16.345 27.125 17.0625 27.125H24.9375C25.655 27.125 26.25 26.53 26.25 25.8125C26.25 25.095 25.655 24.5 24.9375 24.5H17.0625C16.345 24.5 15.75 25.095 15.75 25.8125ZM7 21C7 28.735 13.265 35 21 35C28.735 35 35 28.735 35 21C35 13.265 28.735 7 21 7C13.265 7 7 13.265 7 21Z" fill="#40494F"/>
</svg>
