<svg width="42" height="42" viewBox="0 0 42 42" fill="none" xmlns="http://www.w3.org/2000/svg">
<path fill-rule="evenodd" clip-rule="evenodd" d="M3.5 21C3.5 11.34 11.3225 3.5 20.9825 3.5C30.66 3.5 38.5 11.34 38.5 21C38.5 30.66 30.66 38.5 20.9825 38.5C11.3225 38.5 3.5 30.66 3.5 21ZM14.875 14C13.4253 14 12.25 15.1753 12.25 16.625C12.25 18.0747 13.4253 19.25 14.875 19.25C16.3247 19.25 17.5 18.0747 17.5 16.625C17.5 15.1753 16.3247 14 14.875 14ZM27.125 14C25.6753 14 24.5 15.1753 24.5 16.625C24.5 18.0747 25.6753 19.25 27.125 19.25C28.5747 19.25 29.75 18.0747 29.75 16.625C29.75 15.1753 28.5747 14 27.125 14ZM21 35C13.265 35 7 28.735 7 21C7 13.265 13.265 7 21 7C28.735 7 35 13.265 35 21C35 28.735 28.735 35 21 35ZM26.915 24.7275C27.2825 24.115 28.105 23.9225 28.7175 24.3075C29.33 24.6925 29.5225 25.4975 29.1375 26.11C27.3525 28.9275 24.325 30.625 21 30.625C17.675 30.625 14.6475 28.945 12.8625 26.0925C12.4775 25.48 12.67 24.675 13.2825 24.29C13.895 23.905 14.7 24.0975 15.085 24.71C16.38 26.775 18.585 28 21 28C23.415 28 25.62 26.775 26.915 24.7275Z" fill="#469E00"/>
</svg>
