<svg width="64" height="64" viewBox="0 0 64 64" fill="none" xmlns="http://www.w3.org/2000/svg">
<g clip-path="url(#clip0_28530_1932)">
<rect width="64" height="64" fill="white"/>
<rect width="64" height="64" fill="#0D1F2D"/>
<path d="M21.702 52.62C19.7593 52.62 18.1783 52.2273 16.959 51.442C15.7397 50.636 14.8407 49.613 14.262 48.373C13.6833 47.133 13.394 45.8413 13.394 44.498V27.324H8.992L9.674 21H13.394V14.18L21.082 13.374V21H27.902V27.324H21.082V41.336C21.082 42.9067 21.175 44.0433 21.361 44.746C21.547 45.428 21.9707 45.862 22.632 46.048C23.2933 46.2133 24.3473 46.296 25.794 46.296H27.902L27.22 52.62H21.702Z" fill="white"/>
<rect x="36.7692" y="34" width="18.6154" height="18.6154" fill="white"/>
</g>
<defs>
<clipPath id="clip0_28530_1932">
<rect width="64" height="64" fill="white"/>
</clipPath>
</defs>
</svg>
